<svg width="19" height="18" viewBox="0 0 19 18" fill="none" xmlns="http://www.w3.org/2000/svg">
<path d="M14 6.99997L18 11M18 6.99997L14 11M4 12H2C1.73478 12 1.48043 11.8946 1.29289 11.7071C1.10536 11.5195 1 11.2652 1 11V6.99997C1 6.73476 1.10536 6.4804 1.29289 6.29287C1.48043 6.10533 1.73478 5.99997 2 5.99997H4L7.5 1.49997C7.5874 1.3302 7.73265 1.1973 7.90949 1.12526C8.08633 1.05323 8.2831 1.04683 8.46425 1.10722C8.6454 1.1676 8.79898 1.29078 8.89723 1.45451C8.99549 1.61824 9.03194 1.81171 9 1.99997V16C9.03194 16.1882 8.99549 16.3817 8.89723 16.5454C8.79898 16.7092 8.6454 16.8323 8.46425 16.8927C8.2831 16.9531 8.08633 16.9467 7.90949 16.8747C7.73265 16.8027 7.5874 16.6697 7.5 16.5L4 12Z" stroke="black" stroke-width="2" stroke-linecap="round" stroke-linejoin="round"/>
</svg>
